<svg xmlns="http://www.w3.org/2000/svg" xmlns:xlink="http://www.w3.org/1999/xlink" version="1.1" x="0px" y="0px" viewBox="0 0 100 125" enable-background="new 0 0 100 100" xml:space="preserve"><path d="M77.241,51.289c-1.389-0.559-2.78-1.072-4.165-1.545c1.371-0.502,2.75-1.045,4.13-1.635  c6.418-2.741,12.132-6.099,16.09-9.454c4.309-3.652,6.039-6.865,5.003-9.291c-2.285-5.346-16.194-2.815-28.125,2.283  c-1.379,0.588-2.725,1.209-4.036,1.853c0.613-1.323,1.204-2.682,1.762-4.075c2.6-6.476,4.266-12.891,4.692-18.062  c0.464-5.629-0.585-9.124-3.033-10.106c-2.448-0.982-5.621,0.819-9.176,5.208c-3.267,4.032-6.496,9.819-9.095,16.295  c-0.559,1.393-1.072,2.784-1.543,4.166c-0.502-1.373-1.046-2.752-1.635-4.13c-2.742-6.417-6.1-12.131-9.455-16.09  c-3.651-4.308-6.861-6.04-9.291-5.003c-2.425,1.036-3.396,4.553-2.807,10.171c0.541,5.16,2.349,11.537,5.091,17.954  c0.588,1.377,1.208,2.723,1.854,4.036c-1.325-0.615-2.685-1.206-4.076-1.764c-6.476-2.599-12.891-4.265-18.062-4.691  c-5.629-0.466-9.124,0.584-10.106,3.031c-2.165,5.396,9.463,13.443,21.502,18.275c1.391,0.558,2.781,1.07,4.161,1.542  c-1.374,0.502-2.753,1.046-4.128,1.634c-6.416,2.742-12.129,6.1-16.088,9.455c-4.309,3.653-6.039,6.865-5.003,9.289  c0.893,2.091,3.562,2.977,7.194,2.977c5.661,0,13.664-2.153,20.93-5.258c1.38-0.589,2.726-1.21,4.037-1.854  c-0.615,1.324-1.206,2.684-1.764,4.075c-4.831,12.039-7.054,26.003-1.659,28.169c0.441,0.178,0.898,0.262,1.372,0.262  c5.317,0,12.465-10.709,16.901-21.765c0.558-1.39,1.07-2.779,1.542-4.164c0.502,1.374,1.046,2.754,1.635,4.131  c2.742,6.416,6.1,12.13,9.456,16.088c2.964,3.497,5.638,5.295,7.836,5.295c0.511,0,0.995-0.097,1.452-0.292  c5.348-2.285,2.815-16.195-2.281-28.123c-0.589-1.38-1.209-2.727-1.853-4.036c1.324,0.614,2.684,1.204,4.074,1.762  c7.113,2.855,14.896,4.799,20.523,4.799c3.896,0,6.759-0.933,7.646-3.141C100.907,64.163,89.28,56.118,77.241,51.289z   M70.959,33.486c13.417-5.732,24.208-6.359,25.5-3.335c0.629,1.472-1.037,4.081-4.456,6.979c-3.811,3.229-9.344,6.476-15.582,9.141  c-2.194,0.938-4.386,1.761-6.54,2.465c-0.229-0.067-0.457-0.134-0.686-0.198c-0.329-4.225-2.044-8.238-4.869-11.396  c0.111-0.21,0.223-0.422,0.332-0.635C66.659,35.435,68.77,34.421,70.959,33.486z M62.625,61.805  c-0.006,0.008-0.014,0.015-0.02,0.022c-3.198,3.423-7.713,5.452-12.611,5.452c-2.203,0-4.366-0.42-6.429-1.248  c-8.839-3.547-13.145-13.626-9.598-22.466c0.812-2.024,1.972-3.825,3.39-5.353c0.015-0.018,0.031-0.033,0.045-0.051  c3.197-3.416,7.708-5.44,12.603-5.44c2.202,0,4.365,0.42,6.429,1.248c8.839,3.548,13.145,13.625,9.598,22.465  C65.217,58.465,64.052,60.273,62.625,61.805z M53.144,23.504c2.526-6.296,5.649-11.9,8.793-15.781  c2.822-3.484,5.39-5.208,6.878-4.61c1.485,0.596,2.152,3.619,1.784,8.086c-0.411,4.977-2.028,11.186-4.556,17.481  c-0.889,2.216-1.854,4.348-2.878,6.365c-0.208,0.114-0.415,0.228-0.62,0.342c-1.562-1.343-3.352-2.468-5.366-3.277  c-1.978-0.793-4.041-1.229-6.144-1.342c-0.068-0.225-0.14-0.449-0.211-0.675C51.479,27.928,52.255,25.719,53.144,23.504z   M33.487,29.042c-2.666-6.239-4.42-12.41-4.941-17.377c-0.468-4.458,0.132-7.495,1.604-8.124c1.467-0.627,4.08,1.037,6.979,4.457  c3.229,3.81,6.476,9.344,9.142,15.583c0.935,2.189,1.759,4.38,2.465,6.538c-0.064,0.219-0.128,0.438-0.189,0.657  c-4.334,0.322-8.327,2.075-11.439,4.88c-0.198-0.105-0.398-0.209-0.598-0.313C35.435,33.338,34.421,31.228,33.487,29.042z   M23.504,46.857C9.962,41.423,1.889,34.235,3.113,31.184c0.596-1.485,3.617-2.152,8.085-1.783  c4.978,0.411,11.186,2.028,17.481,4.554c2.212,0.887,4.344,1.854,6.368,2.88c0.11,0.202,0.221,0.403,0.332,0.602  c-1.347,1.574-2.463,3.377-3.268,5.382c-0.809,2.015-1.233,4.087-1.342,6.143c-0.226,0.07-0.453,0.142-0.68,0.213  C27.923,48.52,25.716,47.745,23.504,46.857z M29.04,66.513c-13.418,5.733-24.208,6.359-25.5,3.336  c-0.619-1.449,1.089-4.122,4.457-6.978c3.811-3.23,9.344-6.477,15.581-9.142c2.182-0.934,4.372-1.757,6.535-2.465  c0.231,0.068,0.462,0.136,0.692,0.2c0.33,4.224,2.044,8.236,4.868,11.394c-0.111,0.21-0.222,0.423-0.333,0.636  C33.344,64.563,31.234,65.576,29.04,66.513z M46.855,76.496c-5.434,13.541-12.617,21.606-15.671,20.392  c-3.051-1.226-2.663-12.027,2.771-25.569c0.888-2.211,1.854-4.343,2.88-6.364c0.208-0.114,0.415-0.229,0.621-0.343  c1.561,1.343,3.351,2.467,5.365,3.275c1.978,0.794,4.042,1.23,6.143,1.344c0.069,0.224,0.14,0.448,0.211,0.674  C48.517,72.08,47.741,74.289,46.855,76.496z M66.513,70.96c5.733,13.417,6.359,24.206,3.336,25.498  c-1.452,0.618-4.122-1.088-6.978-4.456c-3.23-3.81-6.477-9.343-9.142-15.581c-0.936-2.188-1.76-4.379-2.467-6.539  c0.064-0.22,0.128-0.438,0.19-0.657c4.333-0.322,8.325-2.074,11.438-4.88c0.2,0.105,0.402,0.211,0.604,0.316  C64.565,66.658,65.577,68.768,66.513,70.96z M96.888,68.813c-1.228,3.053-12.03,2.664-25.569-2.769  c-2.211-0.887-4.341-1.852-6.361-2.877c-0.111-0.204-0.224-0.407-0.336-0.609c1.346-1.574,2.462-3.377,3.267-5.382  c0.809-2.015,1.233-4.086,1.342-6.142c0.225-0.068,0.449-0.14,0.675-0.211c2.178,0.658,4.387,1.434,6.592,2.32  C90.037,58.577,98.111,65.763,96.888,68.813z"/><path d="M53.565,41.117c-1.143-0.458-2.341-0.69-3.562-0.69c-3.934,0-7.421,2.359-8.887,6.009  c-1.964,4.897,0.421,10.481,5.319,12.447c1.142,0.458,2.34,0.69,3.561,0.69c3.933,0,7.42-2.358,8.886-6.008  C60.847,48.667,58.462,43.083,53.565,41.117z M57.027,52.82c-1.16,2.888-3.919,4.753-7.03,4.753c-0.965,0-1.913-0.184-2.816-0.546  c-3.874-1.556-5.761-5.973-4.207-9.847c1.159-2.888,3.918-4.754,7.03-4.754c0.965,0,1.913,0.184,2.817,0.547  C56.693,44.528,58.58,48.946,57.027,52.82z"/><text x="0" y="115" fill="#000000" font-size="5px" font-weight="bold" font-family="'Helvetica Neue', Helvetica, Arial-Unicode, Arial, Sans-serif">Created by Srinivas Agra</text><text x="0" y="120" fill="#000000" font-size="5px" font-weight="bold" font-family="'Helvetica Neue', Helvetica, Arial-Unicode, Arial, Sans-serif">from the Noun Project</text></svg>